<?xml version="1.0" standalone="no"?><svg xmlns="http://www.w3.org/2000/svg" viewBox="0 0 1440 320"><path fill="#d4c0bb" fill-opacity="1" d="M0,32L26.7,69.3C53.3,107,107,181,160,202.7C213.3,224,267,192,320,181.3C373.3,171,427,181,480,186.7C533.3,192,587,192,640,186.7C693.3,181,747,171,800,160C853.3,149,907,139,960,133.3C1013.3,128,1067,128,1120,144C1173.3,160,1227,192,1280,197.3C1333.3,203,1387,181,1413,170.7L1440,160L1440,320L1413.3,320C1386.7,320,1333,320,1280,320C1226.7,320,1173,320,1120,320C1066.7,320,1013,320,960,320C906.7,320,853,320,800,320C746.7,320,693,320,640,320C586.7,320,533,320,480,320C426.7,320,373,320,320,320C266.7,320,213,320,160,320C106.7,320,53,320,27,320L0,320Z"></path></svg>